<?xml version="1.0" encoding="utf-8"?>
<!-- Generator: Adobe Illustrator 27.8.1, SVG Export Plug-In . SVG Version: 6.00 Build 0)  -->
<svg version="1.1" id="Layer_1" xmlns="http://www.w3.org/2000/svg" xmlns:xlink="http://www.w3.org/1999/xlink" x="0px" y="0px"
	 viewBox="0 0 634.1 977" style="enable-background:new 0 0 634.1 977;" xml:space="preserve">
<style type="text/css">
	.st0{fill:#D6F500;}
</style>
<g>
	<g id="XMLID_00000148648009419171535370000000026721383535440799_">
		<g>
			<path class="st0" d="M393.7,899.3c0.7,3.3,0.5,8.9-0.2,12c-0.2,2.3-0.5,4.7-0.7,7c-1.4,5.6-2.8,11-4.9,16
				c-7.6,17.4-22.2,30.2-39.9,37.5c-6.2,2.6-13.1,3-20.4,4.7c-2.5,0.6-10.1,0.8-12.4,0.2c-3.1-0.2-6.3-0.3-9.4-0.5
				c-6.3-1.5-12.5-2.3-17.8-4.5c-3.9-1.6-7.6-2.6-11-4.7c-13.1-8-24.6-18.9-31-33.5c-1.7-3.9-2.5-7.7-3.8-12.2
				c-1.4-4.8-3.3-16.2-1.9-22.5c0.6-2.6-0.1-4.9,0.5-7.3c1.5-6.3,2.6-12.2,4.9-17.6c8.1-18.5,22.9-31.2,41.8-38.9
				c4.8-2,10.3-2.7,15.7-4c2-0.5,8.6-0.1,9.9-0.9c40.3-0.8,64.1,17.7,75.8,45.5c1.8,4.4,3,9.4,4.2,14.5
				C393.7,893.2,393,896,393.7,899.3z"/>
			<path class="st0" d="M632.9,291.1c1.5,6.7,0.9,16.6,0.9,24.4c0,4.2,0.6,9.4-0.2,13.1c0,1.6,0,3.3,0,4.9
				c-0.2,4.1-0.5,8.3-0.7,12.4c-0.9,4-0.2,8.3-1.2,12.4c-0.5,2.4-0.3,5.1-0.9,7.7c-1.7,7.1-2.1,15-4,21.8
				c-2.1,7.4-2.6,14.5-4.9,21.6c-4.8,14.5-9.2,28.5-15,41.8c-10.6,24-24.5,45-39.2,65c-4.2,5.8-9.5,10.7-13.8,16.4
				c-1.9,2.5-4.9,4.3-6.8,6.8c-3.1,4.1-7.4,8.1-11.5,11.3c-1.7,1.3-3,3.4-4.7,4.7c-4.9,3.7-9.2,8.1-14.1,11.7
				c-9.2,6.8-18.6,13.5-28.4,19.7c-4.7,2.9-9.5,5.1-14.3,8c-16.2,9.9-35.3,17.4-54.7,23.9c-4.6,1.5-8.9,2.2-13.6,3.8
				c-5.4,1.7-11.5,2.9-17.1,4.5c-1.6,0.2-3.1,0.5-4.7,0.7c-3.5,0.9-7.6,1.9-11.5,2.1c-1.6,45.9-3.1,91.8-4.7,137.7
				c-35.2,0-70.4,0-105.5,0c-1.6-46-3.1-92.1-4.7-138.1c-0.2-0.1-0.5-0.2-0.7-0.2c-2.1-1.3-6.9-1.1-9.6-1.9
				c-6.7-1.6-13.4-3.3-20.2-4.9c-7.3-2.4-15-4.1-22-7c-10-4.1-19.9-8.2-29.6-12.4c-4.3-1.9-8.8-4.4-12.7-6.8c-2.2-1.3-4.4-2-6.6-3.3
				c-4.9-3-9.9-5.8-14.8-8.9c-8-5.1-15.5-11.1-23-16.7c-5.6-4.1-10.5-8.8-15.9-12.9c-1.9-1.4-3.3-3.7-5.2-5.2
				c-2.6-1.9-4.6-4.3-6.8-6.6c-2.2-2.2-4.5-4.1-6.3-6.6c-2-2.6-5-4.6-7-7.3c-5.5-7.2-11.8-13.9-17.1-21.3
				c-12.3-17.5-24-36.2-33.1-56.8c-4.9-11.2-9.1-23.1-13.1-35.2c-3.8-11.6-5.5-24-8.7-36.4c-0.9-6.3-1.9-12.7-2.8-19
				c-0.6-7.1-1.2-14.2-1.9-21.3c-0.3-1.4,0-3.5-0.2-4.7c0-2.2,0-4.4,0-6.6c-0.6-3-0.2-7.4-0.2-10.8c0-3.3-0.4-7.4,0.2-10.3
				c0.4-2-0.2-4.8,0.2-6.6c0-1.6,0-3.1,0-4.7c1-4.6,0.1-9.8,1.2-14.5c0.9-3.8,0.5-8,1.4-12c2.3-9.8,3-20.1,5.6-29.3
				c0.9-3,0.9-5.7,1.9-8.7c4.3-13.2,7.6-26.3,12.9-38.5c10.8-25,23.8-47,38.7-67.8c5.3-7.3,11.7-13.7,17.1-20.9
				c1.6-2.1,4.2-3.7,5.9-5.9c2.9-3.9,7.4-8.3,11.3-11.3c1-1.1,2-2.2,3-3.3c3.5-2.7,6.4-6.1,9.9-8.7c5.2-4,10.1-8.4,15.5-12.2
				c3-2.2,6.1-4,9.2-6.1c13.7-9.6,28.6-18.4,44.8-25.6c3.3-1.5,6.9-3.4,10.3-4.9c6.2-2.7,12.6-4.7,18.8-7.3c3.3-1.4,6.6-1.9,10.1-3
				c7.9-2.6,16.7-4.7,25.1-7c7.8-2.2,16.2-2.6,24.2-4.5c3.8-0.9,7.4-0.3,11.3-1.2c4.8-1.1,10.7-0.5,15.7-1.6
				c3.1-0.7,6.5,0.2,9.4-0.5c2.3,0,4.5,0,6.8,0c2.2-0.5,11.5-0.8,14.1-0.2c1.9,0.4,4.8-0.2,7,0.2c7.7,0.5,15.5,1.1,23.2,1.6
				c5.9,0.8,11.9,1.6,17.8,2.3c4.6,1.1,9.4,1.3,14.1,2.6c10,2.7,20.1,4.3,29.6,7.5c94.7,31.6,159.1,92.2,196.1,181.5
				c5.5,13.3,9,27.8,13.1,42.4c2.1,7.5,2.6,15.4,4.5,23c0.9,7.7,1.9,15.5,2.8,23.2C632.8,286.9,632.8,289,632.9,291.1z M506,325.4
				c0.7-3.2,0.7-13.9,0-17.1c-0.1-3.4-0.2-6.7-0.2-10.1c-0.4-2,0-4.4-0.5-6.6c-1.3-5.7-1-12.2-2.3-17.6c-1.1-4.6-0.9-8.8-2.1-13.1
				c-3.3-11.6-5.5-23.1-9.9-33.5c-19.7-47.6-50.3-81.5-97.6-101.6c-9.4-4-19.6-6.2-30-9.1c-4.4-0.8-8.8-1.6-13.1-2.4
				c-6.1-0.6-12.2-1.2-18.3-1.9c-1.4-0.3-3.4,0-4.5-0.2c-3.3,0-6.6,0-9.9,0c-7.2,0-14.9-0.5-21.1,0.9c-2.2,0.2-4.4,0.3-6.6,0.5
				c-6.6,1.5-13.4,1.5-19.7,3.3c-18.7,5.3-35.2,10.2-50,19.2c-4.3,2.6-8.6,4.7-12.7,7.5c-5.3,3.7-10.1,7.9-15.2,11.7
				c-1.6,1.2-2.8,3.2-4.4,4.4c-4.5,3.4-8.6,8-12,12.4c-1,1.3-2.5,2.4-3.5,3.8c-3.9,5.3-8.2,10.6-11.7,16.2
				c-10.3,16.2-17.6,34.2-24.2,54.4c-3.1,9.7-3.8,20.2-6.3,30.7c-0.9,3.9-0.6,8.1-1.4,12c-0.3,4.6-0.6,9.2-0.9,13.8c0,2,0,4.1,0,6.1
				c-0.7,3.3-0.7,11.9,0,15.2c0,2.1,0,4.2,0,6.3c1,4.3,0.2,9.5,1.2,13.6c0.1,2.3,0.3,4.5,0.5,6.8c1,6.4,2,12.8,3,19.2
				c3.5,12.8,5.8,25.4,10.6,36.8c14.7,35.5,35,63.1,64.5,83.7c9.5,6.7,19.6,12.2,31,17.1c4.6,2,9.5,4.4,14.8,5.6c0-1.5,0-3,0-4.5
				c-2.1-57.9-4.2-115.9-6.3-173.8c45,0,90.1,0,135.1,0c-2,60-3.9,119.9-5.9,179.9c0.1,0,0.2,0,0.2,0c4.2-1.4,8.4-2.8,12.7-4.2
				c8.8-3.6,17.7-7.4,25.6-12.2c19.1-11.7,36.4-26.1,49.5-43.9c3.7-5,7.2-10.2,10.5-15.5c1.5-2.3,2.3-4.7,3.8-7
				c2.5-4,5.1-8.7,7-13.1c4.9-11.2,8.6-23,12.7-35.4c2.6-8.1,3.1-17,5.2-25.6c0.7-6.3,1.4-12.7,2.1-19c0-1.2,0-2.5,0-3.8
				C506.2,332.6,505.3,328.8,506,325.4z"/>
		</g>
		<g>
		</g>
	</g>
</g>
<g>
</g>
<g>
</g>
<g>
</g>
<g>
</g>
<g>
</g>
<g>
</g>
<g>
</g>
<g>
</g>
<g>
</g>
<g>
</g>
<g>
</g>
<g>
</g>
<g>
</g>
<g>
</g>
<g>
</g>
</svg>
