<?xml version="1.0" encoding="utf-8"?>
<!-- Generator: Adobe Illustrator 27.8.1, SVG Export Plug-In . SVG Version: 6.00 Build 0)  -->
<svg version="1.1" id="Layer_1" xmlns="http://www.w3.org/2000/svg" xmlns:xlink="http://www.w3.org/1999/xlink" x="0px" y="0px"
	 viewBox="0 0 1013.7 269" style="enable-background:new 0 0 1013.7 269;" xml:space="preserve">
<style type="text/css">
	.st0{fill:#D6F500;}
</style>
<g>
	<g id="XMLID_00000004507015642310095450000011647306776171166340_">
		<g>
			<path class="st0" d="M1013.7,144c0,9.6,0,19.2,0,28.8c-23.5,0.2-39.8,1.1-53-9.4c-11.5-9.2-11.8-26.4-11.8-47.3
				c0-16.8,0-33.5,0-50.3c-5.4-0.1-10.8-0.1-16.2-0.1c0-9.4,0.1-18.7,0.1-28.1c5.3,0,10.7,0,16,0c0-11.1,0-22.3,0-33.4
				c11.5,0,23,0,34.4,0c0,11.1,0,22.3,0,33.4c10.1,0.1,20.2,0.1,30.4,0.1c-0.1,9.4-0.1,18.7-0.1,28.1c-10.1,0-20.1,0-30.2,0
				c0,17.4,0,34.8,0,52.3c0,7.9-1,17.7,2.5,22.2C990.1,145.7,1004.2,144.1,1013.7,144z"/>
			<path class="st0" d="M914.2,124.1c1.1,3.7,2.1,9.6,1.3,14.6c-0.9,5.2-2.1,9.8-4.4,13.6c-10.1,17.3-38,28-66.3,20.9
				c-19.3-4.8-41.3-19.8-41.5-43.1c11.5,0,23,0,34.4,0c1.4,10.7,9.7,16,20.1,17.8c12.2,2.1,29.2-4.9,24.4-17.4
				c-3.2-8.3-21.1-11.4-30.6-14.1c-21.1-5.8-40.4-11.1-44.7-33.9c-0.7-3.6-0.9-8.8-0.1-12.6c0.6-3.3,1.6-6.4,2.8-9.1
				c7.2-16.4,26.6-25.4,50.4-25.4c7.2,0,13.7,0.6,19.4,2.2c18,5.3,34.7,19.6,34.8,42.4c-10.9,0-21.8,0-32.7,0
				c-0.2-10.3-8.4-15.6-17.4-17.3c-12-2.3-29,3.5-23.9,16.6c3.3,8.4,19,11.1,28.5,13.8C889.3,98.8,908.2,104,914.2,124.1z"/>
			<path class="st0" d="M714.4,35.4c49.4-0.7,75.3,29.6,70.4,80.1c-33,0-66,0-98.9,0c0,0,0,0.1,0,0.1c1.1,4.3,1.2,8.2,2.7,11.8
				c4.6,10.9,17.5,22.2,35,19c3.1-0.6,6-1.3,8.6-2.4c4.2-1.9,8-5.3,10.5-8.8c1-1.6,2-3.3,3-4.9c12.2,0,24.4,0,36.7,0
				c-0.7,6.3-5.8,13.9-8.9,18.3c-8.4,11.8-20,20.5-36.1,24.6c-4.8,1.2-9.6,0.9-15.2,1.8c-6.2,1-13.9-0.1-19.1-1.4
				c-12.6-3.1-21.6-8.1-30.2-15c-9.9-7.9-16.3-20.8-19.8-35c-7.1-28.3,4.3-59.5,19.4-71.7c7.8-6.2,15.9-10.9,26.8-14.2
				c3.3-0.6,6.6-1.2,10-1.8C711,35.7,712.7,35.5,714.4,35.4z M750.3,92.4c0.2-20.1-20.9-34.3-42.6-27.5c-12,3.7-19.6,13.7-21.5,27.5
				C707.6,92.4,728.9,92.4,750.3,92.4z"/>
			<path class="st0" d="M626.3,37.7c0,45,0,90.1,0,135.2c-11.5,0-23,0-34.6,0c0-5.6,0-11.2,0-16.9c-0.1,0.1-0.2,0.1-0.3,0.1
				c-1.7,3.8-6.3,6.8-9.6,9.1c-5,3.6-10.8,6.3-17.7,8c-18.9,4.8-37.8-2.2-48-10.2c-10.9-8.6-15.7-21.2-18.6-38.1
				c-0.1-4-0.2-8.1-0.3-12.1c0-7.4,0-14.8,0-22.2c0-17.7,0-35.4,0-53.1c11.4,0.1,22.9,0.1,34.3,0.1c0,17.9,0,35.9,0,53.8
				c0,9.7-1.2,21.5,0.7,30.1c3.2,14.9,15.4,27.6,35.8,23.5c11.6-2.4,18.8-9.1,22.1-19.8c2-6.6,1.5-15.6,1.5-24.2c0-13.5,0-27,0-40.5
				c0-7.7,0.1-15.4,0.1-23C603.4,37.6,614.9,37.6,626.3,37.7z"/>
			<path class="st0" d="M470.1,62.9c2.6,8.5,4.6,23.6,2.7,34.7c-1,5.6-1.5,11-3.1,16c-9.9,32.3-33.2,52.6-68.4,59.7
				c-0.4,12.6-0.8,25.2-1.3,37.8c-9.7,0-19.4,0-29.1,0c-0.4-12.7-0.8-25.4-1.3-38.1c-9.2-0.4-21.6-6.3-28-10.1
				c-20.4-12.1-34.2-28.9-40.8-54.9c-2.2-9-3.6-23.2-1.5-33.9c1.2-6.6,2.3-12.8,4.5-18.4c9.8-25.1,28.3-43.5,54.8-51.8
				c7-2.2,14.3-2.5,22.6-3.9c3.2,0,6.4,0.1,9.5,0.1c3.6,0.3,7.2,0.7,10.8,1c7.2,1.5,13.8,3.3,19.8,5.9C446,17.6,462,35.9,470.1,62.9
				z M437.4,96.8c1.2-6.7,1-15.8-0.3-22.3c-1.1-5.5-2.5-10.5-4.5-15c-5.9-13.5-16.8-22.5-31.9-27c-3.6-1.1-7.7-1-11.8-1.7
				c-8.7-1.5-19.4,2-24.9,4.3c-14.8,6.4-24.1,18.2-28.4,35c-1.2,4.6-0.8,9.1-1.7,14.5c-1,6.2,0.2,13.8,1.5,19
				c4.4,17.7,15.7,33.3,33,37.8c-0.6-16.4-1.1-32.8-1.7-49.2c12.4,0,24.7,0,37.1,0c-0.5,16.5-1,33.1-1.5,49.6
				C423.5,133.9,433,121.4,437.4,96.8z"/>
			<path class="st0" d="M405.5,240c6.3,14.4-3.7,26.5-15.6,28.7c-15.8,2.9-29.9-11.9-24-27c2.1-5.4,6.3-9.7,11.7-11.8
				c2.1-0.5,4.1-0.9,6.2-1.4C395,228.3,402.1,232.3,405.5,240z"/>
			<path class="st0" d="M210.8,35.4c49.4-0.7,75.3,29.6,70.4,80.1c-33,0-65.9,0-98.9,0c0,0,0,0.1,0,0.1c1.1,4.3,1.2,8.2,2.7,11.8
				c4.6,10.9,17.5,22.2,35,19c3.1-0.6,6-1.3,8.6-2.4c4.2-1.9,8-5.3,10.5-8.8c1-1.6,2-3.3,2.9-4.9c12.2,0,24.5,0,36.7,0
				c-0.7,6.3-5.8,13.9-8.8,18.3c-8.4,11.8-20,20.5-36.1,24.6c-4.8,1.2-9.6,0.9-15.2,1.8c-6.2,1-13.9-0.1-19.1-1.4
				c-12.6-3.1-21.6-8.1-30.2-15c-9.9-7.9-16.3-20.8-19.8-35c-7.1-28.3,4.3-59.5,19.4-71.7c7.8-6.2,15.9-10.9,26.8-14.2
				c3.3-0.6,6.6-1.2,10-1.8C207.3,35.7,209,35.5,210.8,35.4z M246.6,92.4c0.2-20.1-20.9-34.3-42.6-27.5c-12,3.7-19.6,13.7-21.5,27.5
				C203.9,92.4,225.2,92.4,246.6,92.4z"/>
			<path class="st0" d="M127.4,172.8c-13.2,0-26.4,0-39.6,0c-12.5-22.1-25.1-44.2-37.6-66.3c-5.3,0-10.7,0-16,0
				c0,22.1,0,44.2,0,66.3c-11.4,0-22.8,0-34.1,0C0,116,0,59.2,0,2.4c14.5,0,29,0,43.6,0c9.6,0,21.5-1.1,30.3,0.4
				c17.3,3,31.2,7.6,40,18.8c4.2,5.2,7.5,11.2,9.7,18.4c7.9,26.4-6.7,48.5-22.3,57.7c-4,2.3-9.3,5.3-14.6,5.9
				C100.3,126.7,113.8,149.8,127.4,172.8z M88.4,66.3c1.5-3.7,2.7-10,1.7-15.4C85.7,26.5,62,30.7,34.1,30.8c0,16.7,0,33.3,0,50
				C58.8,80.9,81.1,84.3,88.4,66.3z"/>
		</g>
		<g>
		</g>
	</g>
</g>
<g>
</g>
<g>
</g>
<g>
</g>
<g>
</g>
<g>
</g>
<g>
</g>
<g>
</g>
<g>
</g>
<g>
</g>
<g>
</g>
<g>
</g>
<g>
</g>
<g>
</g>
<g>
</g>
<g>
</g>
</svg>
